<svg xmlns="http://www.w3.org/2000/svg" width="136" height="34" fill="none"><path fill="#fff" d="M5.04 14.139c.648-.98 1.536-1.776 2.664-2.388 1.152-.612 2.46-.918 3.924-.918 1.704 0 3.24.428 4.608 1.285 1.392.857 2.484 2.082 3.276 3.674.816 1.567 1.224 3.392 1.224 5.473 0 2.082-.408 3.93-1.224 5.547-.792 1.592-1.884 2.829-3.276 3.71-1.368.882-2.904 1.323-4.608 1.323-1.488 0-2.796-.294-3.924-.882-1.104-.612-1.992-1.396-2.664-2.35v2.901H0V4.331h5.04v9.808Zm10.548 7.126c0-1.224-.252-2.277-.756-3.159-.48-.906-1.128-1.592-1.944-2.057a5.025 5.025 0 0 0-2.592-.698c-.912 0-1.776.245-2.592.735-.792.465-1.44 1.15-1.944 2.057-.48.906-.72 1.971-.72 3.196 0 1.224.24 2.29.72 3.196.504.906 1.152 1.604 1.944 2.094.816.465 1.68.697 2.592.697.936 0 1.8-.244 2.592-.734.816-.49 1.464-1.188 1.944-2.094.504-.906.756-1.984.756-3.233ZM26.954 8.74c-.888 0-1.632-.282-2.232-.845-.576-.588-.864-1.31-.864-2.167 0-.858.288-1.568.864-2.131.6-.588 1.344-.882 2.232-.882.888 0 1.62.294 2.196.882.6.563.9 1.273.9 2.13 0 .858-.3 1.58-.9 2.168-.576.563-1.308.845-2.196.845Zm2.484 2.424v20.351h-5.04v-20.35h5.04Zm16.788 20.351-6.768-8.67v8.67h-5.04V4.331h5.04v15.465l6.696-8.633h6.552l-8.784 10.212 8.856 10.14h-6.552Zm6.919-10.175c0-2.106.42-3.943 1.26-5.51.84-1.592 2.004-2.817 3.492-3.674 1.488-.881 3.192-1.322 5.112-1.322 2.472 0 4.512.636 6.12 1.91 1.632 1.249 2.724 3.012 3.276 5.29H66.97c-.288-.882-.78-1.568-1.476-2.058-.672-.514-1.512-.77-2.52-.77-1.44 0-2.58.538-3.42 1.615-.84 1.053-1.26 2.56-1.26 4.519 0 1.934.42 3.44 1.26 4.518.84 1.053 1.98 1.58 3.42 1.58 2.04 0 3.372-.93 3.996-2.792h5.436c-.552 2.204-1.644 3.955-3.276 5.253s-3.672 1.947-6.12 1.947c-1.92 0-3.624-.429-5.112-1.286a9.265 9.265 0 0 1-3.492-3.673c-.84-1.592-1.261-3.441-1.261-5.547Zm26.993-7.017a7.205 7.205 0 0 1 2.52-2.534c1.056-.613 2.256-.919 3.6-.919v5.4h-1.332c-1.584 0-2.784.38-3.6 1.14-.792.758-1.188 2.08-1.188 3.966v10.14h-5.04V11.162h5.04v3.16Zm21.574 14.29c-.552.93-1.452 1.715-2.7 2.351a9.032 9.032 0 0 1-4.032.919c-1.248 0-2.376-.258-3.384-.772s-1.8-1.224-2.376-2.13c-.576-.907-.864-1.947-.864-3.123 0-1.886.684-3.428 2.052-4.628 1.392-1.2 3.468-1.8 6.228-1.8h5.076c-.048-1.298-.42-2.327-1.116-3.086-.672-.784-1.608-1.176-2.808-1.176-1.056 0-1.932.294-2.628.882-.696.563-1.14 1.36-1.332 2.388h-5.04c.24-1.47.756-2.78 1.548-3.93a8.187 8.187 0 0 1 3.168-2.72c1.32-.66 2.796-.991 4.428-.991 1.68 0 3.192.355 4.536 1.065a7.765 7.765 0 0 1 3.204 3.05c.768 1.322 1.152 2.877 1.152 4.665v11.938h-5.112v-2.902Zm-5.256-.881c.84 0 1.656-.184 2.448-.551a4.943 4.943 0 0 0 2.016-1.654c.528-.734.792-1.604.792-2.608v-.147h-4.788c-1.152 0-2.016.233-2.592.698-.552.466-.828 1.078-.828 1.837 0 .735.252 1.323.756 1.763.528.441 1.26.662 2.196.662Zm20.997-12.343v16.126h-5.112V15.388h-2.268v-4.225h2.268v-1.028c0-2.498.696-4.335 2.088-5.51 1.392-1.176 3.492-1.727 6.3-1.654v4.335c-1.224-.024-2.076.184-2.556.625-.48.44-.72 1.236-.72 2.387v.845h6.55V6.131h5.076v5.032h4.464v4.225h-4.464v9.845c0 .685.156 1.187.468 1.506.336.294.888.44 1.656.44h2.34v4.335h-3.168c-4.248 0-6.372-2.106-6.372-6.318v-9.808h-6.55Z"/></svg>